<svg id="DESIGNED_BY_FREEPIK" data-name="DESIGNED BY FREEPIK" xmlns="http://www.w3.org/2000/svg" xmlns:xlink="http://www.w3.org/1999/xlink" viewBox="0 0 226.27 198.77"><defs><style>.cls-1{fill:none;clip-rule:evenodd;}.cls-10,.cls-14,.cls-15,.cls-16,.cls-17,.cls-18,.cls-19,.cls-2,.cls-20,.cls-3,.cls-4,.cls-6,.cls-7,.cls-8,.cls-9{fill-rule:evenodd;}.cls-13,.cls-2{opacity:0.2;}.cls-3{fill:#a42354;}.cls-4,.cls-5{fill:#ba3769;}.cls-6{fill:#831c43;}.cls-7{fill:#80163e;}.cls-15,.cls-8{fill:#fff;}.cls-9{fill:#4d4d4d;}.cls-10{fill:#e1f7f3;}.cls-11{clip-path:url(#clip-path);}.cls-12,.cls-16{fill:#edaf34;}.cls-15{opacity:0.5;}.cls-17{fill:#ffc95e;}.cls-18{fill:#dea128;}.cls-19{fill:#b03464;}.cls-20{fill:#c44b79;}</style><clipPath id="clip-path" transform="translate(-119.77 -237.84)"><path class="cls-1" d="M190.73,429.74H309.27L260.55,273.82c-3.69-11.82-17-13.17-21.32.68Z"/></clipPath></defs><path class="cls-2" d="M274.27,427.14l-3.55-11.35h0l-.9-2.9a12.89,12.89,0,0,0,3.13-.74c4.24-1.57,6.92-4.89,6-7.41-.67-1.82-3-2.72-5.89-2.5,2.31-1.69,3.51-3.92,2.84-5.73s-3-2.73-5.89-2.51c2.31-1.69,3.52-3.91,2.84-5.73-.49-1.34-1.91-2.19-3.77-2.45.7-2.64.27-5-1.32-6-1.95-1.22-5,0-7.38,2.85l-.74-2.38c11.07-10.33,25.49-46.13,32.72-75.88a76.92,76.92,0,0,0,8.49,2.24c9,1.83,8.47-4.6,5.67-7.65l-8.68-9.46a10.26,10.26,0,0,1,.43-1.29v0h0a33.9,33.9,0,0,0,2-21.43c.1-.21.19-.42.28-.64,8.57-20.42-10.31-32-29.21-27.24a34.66,34.66,0,0,0-33.72,11.65l0,0,0,0,0,0-.11.14,0,0,0,0-.28.36h0l0,0c-.08.11-.17.22-.25.34l0,0,0,0-.15.21-.39.53-.36-.49c-3-2.76-5.88,1.88-3.47,5.21q1.62,2.25,3.33,4.45a134.08,134.08,0,0,0-8.34,15.63l-1-3.33c-3.69-11.82-17-13.17-21.31.68l-5,16.07c-2.21-2.17-4.83-3-6.56-1.95s-2,3.37-1.31,6c-1.86.26-3.28,1.11-3.78,2.45-.67,1.82.53,4,2.84,5.74-2.85-.23-5.22.68-5.89,2.5s.53,4,2.85,5.73c-2.86-.22-5.22.69-5.9,2.5-.76,2.06.89,4.65,3.84,6.39a11.76,11.76,0,0,0,3.92,2.6l-.63,2c-.74-.09-1.48-.17-2.24-.23-27.59-3.57-40,11.27-28,46.25C169.65,401,157,404,150.82,412.12c-4.2,5.51-6.79,11.64-3.49,15H124.5a4.75,4.75,0,0,0-4.73,4.73h0a4.75,4.75,0,0,0,4.73,4.74H307.12a4.75,4.75,0,0,0,4.73-4.74h0a4.75,4.75,0,0,0-4.73-4.73Z" transform="translate(-119.77 -237.84)"/><path class="cls-3" d="M223.57,324.64c-29.13-4.65-42.57,10-30.2,45.94C203.83,401,191.21,404,185,412.12s-8.91,17.62,5.72,17.62S277.6,333.28,223.57,324.64Z" transform="translate(-119.77 -237.84)"/><path class="cls-4" d="M200.53,366.83a4.06,4.06,0,1,0-3.89-4.06A4,4,0,0,0,200.53,366.83Z" transform="translate(-119.77 -237.84)"/><path class="cls-4" d="M194.68,358.53a2.7,2.7,0,1,0-2.59-2.7A2.65,2.65,0,0,0,194.68,358.53Z" transform="translate(-119.77 -237.84)"/><ellipse class="cls-5" cx="80.49" cy="117.48" rx="1.84" ry="1.92"/><path class="cls-3" d="M329.13,263.48c9.89,17-20.06,108.43-37.89,118.77s-40.29,4.9-50.18-12.14S261.13,261.68,279,251.34,319.25,246.44,329.13,263.48Z" transform="translate(-119.77 -237.84)"/><path class="cls-6" d="M189.77,428.82c7.09,11.1,57.33-13.22,71-36.85,13.89-24-2.54-68.38-45.1-67.85Z" transform="translate(-119.77 -237.84)"/><path class="cls-7" d="M312.45,307.46a9.93,9.93,0,1,1-13,4.82A9.82,9.82,0,0,1,312.45,307.46Z" transform="translate(-119.77 -237.84)"/><path class="cls-8" d="M312.25,308a8.15,8.15,0,1,1-10.69,3.95A8.05,8.05,0,0,1,312.25,308Z" transform="translate(-119.77 -237.84)"/><path class="cls-9" d="M314.37,312.07a3.66,3.66,0,1,1-4.8,1.77A3.63,3.63,0,0,1,314.37,312.07Z" transform="translate(-119.77 -237.84)"/><path class="cls-8" d="M315.19,313.6a1.05,1.05,0,0,1,.49,1.42,1.05,1.05,0,1,1-.49-1.42Z" transform="translate(-119.77 -237.84)"/><path class="cls-7" d="M293.06,298.35a9.93,9.93,0,1,1-13,4.81A9.82,9.82,0,0,1,293.06,298.35Z" transform="translate(-119.77 -237.84)"/><path class="cls-8" d="M292.86,298.83a8.15,8.15,0,1,1-10.69,4A8.06,8.06,0,0,1,292.86,298.83Z" transform="translate(-119.77 -237.84)"/><path class="cls-9" d="M295,303a3.66,3.66,0,1,1-4.8,1.77A3.62,3.62,0,0,1,295,303Z" transform="translate(-119.77 -237.84)"/><path class="cls-8" d="M295.81,304.48a1.08,1.08,0,1,1-1.42.53A1.08,1.08,0,0,1,295.81,304.48Z" transform="translate(-119.77 -237.84)"/><path class="cls-2" d="M267.73,265.14c15.62,20,29.78,50.17,51.82,62.51,7.05-23.61,16.64-52,9.58-64.17S296.78,241,279,251.34C275.54,253.33,271.68,258.3,267.73,265.14Z" transform="translate(-119.77 -237.84)"/><path class="cls-3" d="M227.66,288.62c2.27-1.43,6.07.52,8.47,4.35s2.51,8.09.24,9.52-6.07-.52-8.48-4.34S225.38,290.05,227.66,288.62Z" transform="translate(-119.77 -237.84)"/><path class="cls-3" d="M301.94,379.81c-2.28-1.43-6.07.52-8.48,4.35s-2.51,8.09-.23,9.52,6.07-.52,8.47-4.35S304.21,381.24,301.94,379.81Z" transform="translate(-119.77 -237.84)"/><path class="cls-10" d="M190.73,429.74H309.27L260.55,273.82c-3.69-11.82-17-13.17-21.32.68Z" transform="translate(-119.77 -237.84)"/><g class="cls-11"><rect class="cls-12" x="50.78" y="147.33" width="158.89" height="25.77"/><rect class="cls-12" x="50.78" y="96.41" width="158.89" height="25.77"/><rect class="cls-12" x="50.78" y="45.49" width="158.89" height="25.77"/></g><g class="cls-13"><path class="cls-14" d="M302.39,407.73c-2.13,1.66-3.21,3.78-2.56,5.52s2.59,2.54,5.08,2.54Z" transform="translate(-119.77 -237.84)"/><path class="cls-14" d="M299.73,399.21c-2.38,1.7-3.63,4-3,5.81s2.85,2.65,5.55,2.52Z" transform="translate(-119.77 -237.84)"/><path class="cls-14" d="M297.07,390.71c-2.63,1.72-4.06,4.13-3.34,6.07s3.11,2.75,6,2.49Z" transform="translate(-119.77 -237.84)"/></g><path class="cls-15" d="M211.75,429.74H241.7l7.48-149.68c.3-6.17-3.92-6.58-5.47.63Z" transform="translate(-119.77 -237.84)"/><path class="cls-2" d="M218.78,315.35c.94-2.52,5.13-3.29,9.37-1.72s6.93,4.89,6,7.41-5.12,3.29-9.37,1.72S217.85,317.87,218.78,315.35Z" transform="translate(-119.77 -237.84)"/><path class="cls-2" d="M221.83,307.12c.94-2.52,5.13-3.29,9.37-1.72s6.92,4.88,6,7.4-5.13,3.29-9.37,1.72S220.9,309.64,221.83,307.12Z" transform="translate(-119.77 -237.84)"/><path class="cls-2" d="M224.88,298.88c.93-2.52,5.13-3.29,9.37-1.72s6.92,4.89,6,7.41-5.13,3.29-9.37,1.72S224,301.4,224.88,298.88Z" transform="translate(-119.77 -237.84)"/><path class="cls-16" d="M158.69,436.61H341.31a4.75,4.75,0,0,0,4.73-4.74h0a4.75,4.75,0,0,0-4.73-4.73H158.69a4.75,4.75,0,0,0-4.73,4.73h0A4.75,4.75,0,0,0,158.69,436.61Z" transform="translate(-119.77 -237.84)"/><path class="cls-16" d="M318.93,244.49c-16.53-11-38.5-7.15-49.06,8.68-.29.43-.56.86-.83,1.3l59.82,39.92c.31-.42.6-.83.89-1.27C340.31,277.3,335.47,255.52,318.93,244.49Z" transform="translate(-119.77 -237.84)"/><path class="cls-17" d="M334.73,266.15c8.57-20.42-10.33-32-29.23-27.23,14.56,4.49,22.54,15.7,24.17,28.34C330.18,271.15,332.61,271.21,334.73,266.15Z" transform="translate(-119.77 -237.84)"/><path class="cls-18" d="M271.8,250.56a31.41,31.41,0,0,0-1.93,2.61c-.29.43-.56.86-.83,1.3,6.3,4.2,37.42,44.54,60.71,38.65,1.86-.47,2-3.25,2.73-5C323.51,293.64,281.9,262.78,271.8,250.56Z" transform="translate(-119.77 -237.84)"/><path class="cls-17" d="M301.41,243a24.18,24.18,0,0,1,20,24.25c.18,4.71,6.33,5.42,5-1C323,250.25,315.06,244.39,301.41,243Z" transform="translate(-119.77 -237.84)"/><path class="cls-16" d="M335,306.64c-26.66-5.43-51.13-25.6-68.43-49.57-2.41-3.33.42-8,3.47-5.21,10.13,14.28,55.23,47.79,61.83,37.55l8.79,9.58C343.49,302,344,308.47,335,306.64Z" transform="translate(-119.77 -237.84)"/><path class="cls-18" d="M290,260.62c34.62,29.63,31.35-6.6,11.34-14.12C321.35,259.19,313.62,278.53,290,260.62Z" transform="translate(-119.77 -237.84)"/><path class="cls-3" d="M216.47,313.55c.93-2.52,5.13-3.29,9.37-1.72s6.92,4.88,6,7.4-5.13,3.29-9.37,1.73S215.54,316.07,216.47,313.55Z" transform="translate(-119.77 -237.84)"/><path class="cls-3" d="M219.52,305.32c.93-2.52,5.13-3.29,9.37-1.72s6.92,4.88,6,7.4-5.13,3.29-9.37,1.72S218.59,307.84,219.52,305.32Z" transform="translate(-119.77 -237.84)"/><path class="cls-3" d="M222.57,297.08c.93-2.52,5.12-3.29,9.36-1.72s6.93,4.89,6,7.4-5.12,3.3-9.36,1.73S221.63,299.6,222.57,297.08Z" transform="translate(-119.77 -237.84)"/><path class="cls-19" d="M223.06,296.87c-.65,1.75,1.22,4.06,4.17,5.16s5.87.55,6.52-1.2-1.21-4.07-4.17-5.16S223.71,295.11,223.06,296.87Z" transform="translate(-119.77 -237.84)"/><path class="cls-19" d="M220,305.15c-.65,1.75,1.22,4.06,4.18,5.16s5.87.55,6.52-1.2-1.22-4.07-4.17-5.16S220.64,303.39,220,305.15Z" transform="translate(-119.77 -237.84)"/><path class="cls-19" d="M216.93,313.43c-.65,1.75,1.22,4.06,4.17,5.15s5.88.56,6.53-1.19-1.22-4.07-4.18-5.16S217.58,311.67,216.93,313.43Z" transform="translate(-119.77 -237.84)"/><path class="cls-3" d="M313.13,404.74c-.94-2.52-5.13-3.29-9.37-1.72s-6.92,4.88-6,7.4,5.13,3.29,9.37,1.73S314.06,407.26,313.13,404.74Z" transform="translate(-119.77 -237.84)"/><path class="cls-3" d="M310.08,396.51c-.93-2.52-5.13-3.29-9.37-1.73s-6.92,4.89-6,7.41,5.13,3.29,9.37,1.72S311,399,310.08,396.51Z" transform="translate(-119.77 -237.84)"/><path class="cls-3" d="M307,388.27c-.93-2.52-5.13-3.29-9.37-1.72s-6.92,4.88-6,7.4,5.13,3.29,9.37,1.72S308,390.79,307,388.27Z" transform="translate(-119.77 -237.84)"/><path class="cls-20" d="M306.15,388.64c.65,1.75-1.21,4.06-4.17,5.15s-5.87.56-6.52-1.19,1.22-4.07,4.17-5.16S305.51,386.88,306.15,388.64Z" transform="translate(-119.77 -237.84)"/><path class="cls-20" d="M309.22,396.92c.65,1.75-1.22,4.06-4.17,5.15s-5.88.56-6.53-1.2,1.22-4.06,4.17-5.15S308.57,395.16,309.22,396.92Z" transform="translate(-119.77 -237.84)"/><path class="cls-20" d="M312.28,405.19c.65,1.76-1.22,4.07-4.17,5.16s-5.87.56-6.52-1.2,1.21-4.06,4.17-5.15S311.63,403.44,312.28,405.19Z" transform="translate(-119.77 -237.84)"/><path class="cls-7" d="M295.44,323.81c2.59,1.24,3.5,4.76,2,7.85s-4.78,4.61-7.38,3.37-3.5-4.76-2-7.85S292.85,322.57,295.44,323.81Z" transform="translate(-119.77 -237.84)"/><path class="cls-4" d="M304.66,351a4.06,4.06,0,1,0-3.89-4.06A4,4,0,0,0,304.66,351Z" transform="translate(-119.77 -237.84)"/><path class="cls-4" d="M307.94,342.65a2.7,2.7,0,1,0-2.59-2.7A2.65,2.65,0,0,0,307.94,342.65Z" transform="translate(-119.77 -237.84)"/><ellipse class="cls-5" cx="182.62" cy="102.17" rx="1.84" ry="1.92"/><path class="cls-4" d="M271.89,280.54a2.71,2.71,0,1,0-2.59-2.7A2.65,2.65,0,0,0,271.89,280.54Z" transform="translate(-119.77 -237.84)"/><path class="cls-4" d="M276.46,283.38a1.92,1.92,0,1,0-1.83-1.92A1.89,1.89,0,0,0,276.46,283.38Z" transform="translate(-119.77 -237.84)"/><path class="cls-4" d="M272.63,284.45a1.46,1.46,0,0,0,0-2.91,1.46,1.46,0,0,0,0,2.91Z" transform="translate(-119.77 -237.84)"/><path class="cls-4" d="M208.14,328c-9.35.57-14.66,7.36-15.2,14-.32,3.86,2.57,5.35,4,.14,2.1-7.52,9-9.95,11.43-9.95S210.86,327.8,208.14,328Z" transform="translate(-119.77 -237.84)"/></svg>